<svg width="19" height="22" viewBox="0 0 19 22" fill="none" xmlns="http://www.w3.org/2000/svg">
<path d="M6.06639 21.9985C4.7086 21.4283 3.43805 19.9791 3.43502 18.4963C3.43132 16.8797 4.48588 15.5071 5.79748 14.6051C5.6398 15.1839 5.5538 15.7133 5.94445 16.231C6.3076 16.7123 6.94364 16.9462 7.54421 16.8192C8.94751 16.5208 9.01189 15.022 8.17996 14.1488C7.35742 13.2841 6.56171 12.3074 6.8748 11.0534C7.03153 10.4248 7.42882 9.83601 7.93211 9.41512C7.54525 10.4028 8.64456 11.3769 9.36887 11.862C10.6253 12.7038 12.0038 13.34 13.1591 14.3267C14.3743 15.3638 15.2716 16.766 15.0904 18.3923C14.8941 20.1551 13.4523 21.3811 11.8351 22C15.2525 21.2672 18.7836 18.6904 18.8559 15.0083C18.9158 11.979 16.7769 9.64772 14.1272 8.31303L13.9888 8.23961C14.0615 8.41104 14.0853 8.55687 14.0825 8.6874C14.1062 8.59113 14.1224 8.4922 14.1269 8.39013C14.1263 8.51139 14.1099 8.63208 14.0784 8.74939L14.0825 8.6874C14.0432 8.84822 13.9769 9.00168 13.8863 9.14163L13.9252 9.101C13.3966 9.95281 11.9655 10.1378 11.2586 9.25576C10.1221 7.83697 11.2824 6.30727 11.4447 4.80484C11.6479 2.92187 10.4324 1.09389 8.92541 0C9.75544 1.30447 8.66192 3.03029 7.78704 3.99513C6.93871 4.93039 5.907 5.71127 4.97049 6.56105C3.96448 7.47375 2.99734 8.43518 2.17044 9.50641C0.516635 11.6505 -0.495825 14.3472 0.248207 17.0221C0.991764 19.6951 3.37509 21.3967 6.06648 21.9984L6.06639 21.9985Z" fill="#EE4323"/>
</svg>
