<svg width="18" height="25" viewBox="0 0 18 25" fill="none" xmlns="http://www.w3.org/2000/svg">
<path fill-rule="evenodd" clip-rule="evenodd" d="M0 20.0022L0.149626 19.7921L7.22598 6.32666L7.24092 6.1841L4.1216 0.308011C3.86012 -0.184201 3.12432 -0.0597347 3.03862 0.491283L0 20.0022Z" fill="#FFC24A"/>
<path fill-rule="evenodd" clip-rule="evenodd" d="M0.0882568 19.842L0.201375 19.6207L7.20365 6.29634L4.09202 0.396364C3.83343 -0.0906889 3.17671 0.0334951 3.09185 0.578717L0.0882568 19.842Z" fill="#FFA712"/>
<path fill-rule="evenodd" clip-rule="evenodd" d="M0.0882568 19.842L0.201375 19.6207L7.20365 6.29634L4.09202 0.396364C3.83343 -0.0906889 3.17671 0.0334951 3.09185 0.578717L0.0882568 19.842Z" fill="black"/>
<path fill-rule="evenodd" clip-rule="evenodd" d="M9.51506 10.6287L11.8377 8.24325L9.51435 3.79538C9.29382 3.37434 8.67805 3.37307 8.45985 3.79538L7.21851 6.1693V6.37144L9.51499 10.6287H9.51506Z" fill="#F4BD62"/>
<path fill-rule="evenodd" clip-rule="evenodd" d="M9.47347 10.5297L11.7315 8.21057L9.47347 3.89862C9.25908 3.48931 8.73817 3.44641 8.52603 3.85692L7.2782 6.26773L7.24084 6.39099L9.47347 10.5297V10.5297Z" fill="#FFA50E"/>
<path fill-rule="evenodd" clip-rule="evenodd" d="M9.47347 10.5297L11.7315 8.21057L9.47347 3.89862C9.25908 3.48931 8.73817 3.44641 8.52603 3.85692L7.2782 6.26773L7.24084 6.39099L9.47347 10.5297V10.5297Z" fill="black"/>
<path fill-rule="evenodd" clip-rule="evenodd" d="M0 20.0025L0.0678006 19.9341L0.314194 19.8337L9.3691 10.7867L9.48384 10.4735L7.22499 6.15686L0 20.0025Z" fill="#F6820C"/>
<path fill-rule="evenodd" clip-rule="evenodd" d="M9.80508 24.5648L18 19.9814L15.6598 5.52777C15.5866 5.07557 15.0334 4.89682 14.7106 5.22102L0 20.0022L8.14791 24.5644C8.66286 24.8527 9.29001 24.8529 9.80508 24.5648" fill="#FDE068"/>
<path fill-rule="evenodd" clip-rule="evenodd" d="M17.9266 19.9428L15.6042 5.59897C15.5316 5.15015 15.0715 4.96448 14.7512 5.28628L0.0909424 19.9739L8.14942 24.4909C8.66043 24.7771 9.2828 24.7772 9.79397 24.4913L17.9267 19.9428L17.9266 19.9428Z" fill="#FCCA3F"/>
<path fill-rule="evenodd" clip-rule="evenodd" d="M9.80506 24.4298C9.29001 24.7179 8.66289 24.7178 8.14796 24.4295L0.0656673 19.9329L0.00012207 20.0023L8.14796 24.5646C8.66291 24.8529 9.29006 24.853 9.80513 24.5649L18.0001 19.9816L17.98 19.8577L9.80513 24.4299L9.80506 24.4298Z" fill="#EEAB37"/>
</svg>
