<svg width="16" height="16" viewBox="0 0 16 16" fill="none" xmlns="http://www.w3.org/2000/svg">
<path d="M11.7449 7.7925C11.6731 8.83459 11.0789 9.56619 10.3928 9.87625C9.66538 10.2049 8.93008 10.0236 8.56297 9.425C7.96192 8.44481 8.37493 7.76263 8.77431 7.10288C9.22717 6.35478 9.74049 5.50684 9.24816 3.85791C8.85949 2.55613 8.0983 1.46322 6.9857 0.609531C6.63886 0.343437 6.30992 0.143312 6.04297 0C6.41582 0.907562 6.90068 2.59641 6.39421 4.46228C6.07299 5.64581 5.22405 6.54269 4.40304 7.41003C3.3217 8.55247 2.20349 9.73378 2.20349 11.6213C2.20349 13.0855 2.71364 14.2519 3.71972 15.0882C4.48159 15.7214 5.25902 15.968 5.26677 15.97H7.12185L7.08302 15.9692C7.07586 15.9637 6.36912 15.4058 6.35695 14.766C6.35128 14.467 6.50821 14.1802 6.82337 13.9135C7.29677 13.5129 7.55695 13.0816 7.61885 12.5949C7.6567 12.2973 7.61843 11.9826 7.50212 11.643C8.28729 11.9723 9.09948 12.6913 9.37471 13.5838C9.62189 14.3853 9.39324 15.2097 8.71411 15.97H10.7443C12.0742 14.9281 12.8228 13.6796 12.9696 12.2591C13.1567 10.4479 12.3286 8.742 11.7449 7.7925Z" fill="#0C0B0B"/>
<path d="M7.12183 15.97L8.68734 16C8.69643 15.99 8.70512 15.98 8.71406 15.97H7.12183Z" fill="#0C0B0B"/>
</svg>
