<svg width="15" height="20" viewBox="0 0 15 20" fill="none" xmlns="http://www.w3.org/2000/svg">
<g filter="url(#filter0_i)">
<path d="M4.65592 7.43291C4.65592 5.90522 5.89162 4.66667 7.41571 4.66667H7.48323C8.98933 4.66667 10.1723 5.87625 10.1424 7.38575L14.7974 7.47845L14.8 7.34758L10.145 7.25488C10.1147 8.78554 8.83963 10.0667 7.44947 10.0667C6.16377 10.0667 5.12151 11.1113 5.12151 12.4C5.12151 13.6887 6.16377 14.7333 7.44947 14.7333C11.3984 14.7333 14.7198 11.3961 14.8 7.34758L10.145 7.25488L10.1424 7.38575L14.7974 7.47845C14.8791 3.3559 11.597 0 7.48323 0H7.41571C3.32024 0 0 3.32788 0 7.43291V17.4C0 18.6887 1.04226 19.7333 2.32796 19.7333C3.61365 19.7333 4.65592 18.6887 4.65592 17.4V7.43291Z" fill="url(#paint0_linear)"/>
</g>
<defs>
<filter id="filter0_i" x="0" y="0" width="14.8" height="19.7333" filterUnits="userSpaceOnUse" color-interpolation-filters="sRGB">
<feFlood flood-opacity="0" result="BackgroundImageFix"/>
<feBlend mode="normal" in="SourceGraphic" in2="BackgroundImageFix" result="shape"/>
<feColorMatrix in="SourceAlpha" type="matrix" values="0 0 0 0 0 0 0 0 0 0 0 0 0 0 0 0 0 0 127 0" result="hardAlpha"/>
<feOffset/>
<feGaussianBlur stdDeviation="0.5"/>
<feComposite in2="hardAlpha" operator="arithmetic" k2="-1" k3="1"/>
<feColorMatrix type="matrix" values="0 0 0 0 0 0 0 0 0 0 0 0 0 0 0 0 0 0 0.420177 0"/>
<feBlend mode="normal" in2="shape" result="effect1_innerShadow"/>
</filter>
<linearGradient id="paint0_linear" x1="0" y1="0" x2="0" y2="19.7333" gradientUnits="userSpaceOnUse">
<stop stop-color="#C063D5"/>
<stop offset="1" stop-color="#5A1AA9"/>
</linearGradient>
</defs>
</svg>
