<svg width="16" height="16" viewBox="0 0 16 16" fill="none" xmlns="http://www.w3.org/2000/svg">
<g clip-path="url(#clip0)">
<path d="M15.144 5.439L10.827 4.811L8.89996 0.899996C8.80839 0.742461 8.67707 0.611721 8.51913 0.520845C8.3612 0.429969 8.18217 0.382141 7.99996 0.382141C7.81774 0.382141 7.63872 0.429969 7.48078 0.520845C7.32284 0.611721 7.19153 0.742461 7.09996 0.899996L5.17296 4.812L0.855957 5.439C0.671092 5.46551 0.497346 5.54326 0.354399 5.66344C0.211451 5.78362 0.105015 5.94144 0.047145 6.119C-0.0107245 6.29656 -0.0177145 6.48678 0.0269669 6.66812C0.0716482 6.84945 0.166215 7.01465 0.299957 7.145L3.42296 10.19L2.68596 14.49C2.65445 14.6739 2.67502 14.8629 2.74534 15.0358C2.81566 15.2086 2.93293 15.3583 3.08389 15.4679C3.23484 15.5776 3.41347 15.6428 3.59957 15.6563C3.78566 15.6697 3.97181 15.6308 4.13696 15.544L7.99996 13.513L11.861 15.542C12.0261 15.6288 12.2122 15.6677 12.3983 15.6543C12.5844 15.6408 12.7631 15.5756 12.914 15.466C13.065 15.3563 13.1823 15.2066 13.2526 15.0338C13.3229 14.8609 13.3435 14.6719 13.312 14.488L12.575 10.188L15.7 7.145C15.8334 7.01474 15.9277 6.84978 15.9723 6.66874C16.0169 6.4877 16.01 6.29779 15.9524 6.12046C15.8948 5.94313 15.7887 5.78545 15.6462 5.6652C15.5037 5.54496 15.3305 5.46696 15.146 5.44L15.144 5.439Z" fill="#F2C94C"/>
</g>
<defs>
<clipPath id="clip0">
<rect width="16" height="16" fill="white"/>
</clipPath>
</defs>
</svg>
