<svg width="22" height="20" viewBox="0 0 22 20" fill="none" xmlns="http://www.w3.org/2000/svg">
<path fill-rule="evenodd" clip-rule="evenodd" d="M4.28686 7.06732L10.5362 19.0778L0.0322266 7.06732H4.28686Z" fill="#EA6C00"/>
<path fill-rule="evenodd" clip-rule="evenodd" d="M16.7872 7.06732L10.5379 19.0778L21.0419 7.06732H16.7872Z" fill="#EA6C00"/>
<path fill-rule="evenodd" clip-rule="evenodd" d="M4.28662 7.06732H16.7852L10.5359 19.0778L4.28662 7.06732Z" fill="#FDAD00"/>
<path fill-rule="evenodd" clip-rule="evenodd" d="M10.5359 0.41156L4.61554 1.02606L4.28662 7.06776L10.5359 0.41156Z" fill="#FDD231"/>
<path fill-rule="evenodd" clip-rule="evenodd" d="M10.5359 0.41156L16.4562 1.02606L16.7852 7.06776L10.5359 0.41156Z" fill="#FDD231"/>
<path fill-rule="evenodd" clip-rule="evenodd" d="M21.0419 7.06758L16.4583 1.02588L16.7872 7.06758H21.0419Z" fill="#FDAD00"/>
<path fill-rule="evenodd" clip-rule="evenodd" d="M0.0322266 7.06758L4.61578 1.02588L4.28686 7.06758H0.0322266Z" fill="#FDAD00"/>
<path fill-rule="evenodd" clip-rule="evenodd" d="M10.5359 0.41156L4.28662 7.06776H16.7852L10.5359 0.41156Z" fill="#FEEEB7"/>
</svg>
